# xmcd
# Track frame offsets:
# 150
# 17185
# 33964
# 49940
# 66518
# 86870
# 98520
# 114199
# 131980
# 149249
# 166724
#
# Disc length: 2450 seconds
# Revision: 0
# Processed by: cddbd v1.4PL0 Copyright (c) Steve Scherf et al.
# Submitted via: VisiTrax 2.9.5.180 - For more info visit www.synapsa.com
#
DISCID=9b09900b
DTITLE=Love Sick Prairie Dogs - Love Sick Prairie Dogs On Fire
DYEAR=1999
DGENRE=
TTITLE0=I´m Not Cryin´
TTITLE1=Hot Ta-Ta-Ta
TTITLE2=Savannah Nights
TTITLE3=Bartender Please
TTITLE4=Good In Goodbye
TTITLE5=Don´t Tell Anybody
TTITLE6=Where Are You Topnight
TTITLE7=Country Song
TTITLE8=What Dream
TTITLE9=Fary Tales
TTITLE10=I´m Not Cryin
EXTD=Love Sick Prairie Dogs are:\nKarin Konnoff-Lead Vocals\nJim Nielsen-Gu
EXTD=itar/Fiddle/Vocals\nOwen Seiver-Bass Guitar/Vocals
EXTT0=
EXTT1=
EXTT2=
EXTT3=
EXTT4=
EXTT5=
EXTT6=
EXTT7=
EXTT8=
EXTT9=
EXTT10=
PLAYORDER=
